<?xml version="1.0" encoding="utf-8"?>
<!-- Generator: Adobe Illustrator 23.0.1, SVG Export Plug-In . SVG Version: 6.00 Build 0)  -->
<svg version="1.1" id="Layer_1" xmlns="http://www.w3.org/2000/svg" xmlns:xlink="http://www.w3.org/1999/xlink" x="0px" y="0px"
	 viewBox="0 0 56 56" style="enable-background:new 0 0 56 56;" xml:space="preserve">
<style type="text/css">
	.st0{fill-rule:evenodd;clip-rule:evenodd;fill:#FFCBE8;}
	.st1{fill:#FF69B4;}
</style>
<g>
	<circle class="st0" cx="28" cy="28" r="28"/>
	<path class="st1" d="M41.3,18L41.3,18c-0.3-0.5-0.9-0.7-1.3-0.4c-0.1,0-0.2,0.1-0.2,0.2l-3.8,3.8c-0.4,0.4-1,0.4-1.4,0l-1.7-1.7
		c-0.4-0.4-0.4-1,0-1.4c0,0,0,0,0,0l3.8-3.8c0.4-0.4,0.4-1,0-1.4c-0.1-0.1-0.2-0.2-0.3-0.2l0,0c-2.9-1.3-6.5-0.6-8.8,1.6
		c-1.9,1.9-2.5,4.9-1.6,8.2c0.1,0.4,0,0.7-0.3,1l-10.4,9.5c-1.6,1.5-1.8,4-0.3,5.7c1.5,1.6,4,1.8,5.7,0.3c0.1-0.1,0.2-0.2,0.3-0.3
		l9.6-10.4c0.3-0.3,0.6-0.4,1-0.3c0.9,0.3,1.9,0.4,2.9,0.4c2.1,0,3.9-0.7,5.2-2C42.2,24.4,42.5,20.3,41.3,18z M18.2,38.4
		c-1.1,0.1-2.1-0.7-2.2-1.8c-0.1-1.1,0.7-2.1,1.8-2.2c1.1-0.1,2.1,0.7,2.2,1.8c0,0.1,0,0.3,0,0.4C19.9,37.6,19.2,38.3,18.2,38.4z"/>
</g>
</svg>
