<?xml version="1.0" encoding="utf-8"?>
<!-- Generator: Adobe Illustrator 23.0.1, SVG Export Plug-In . SVG Version: 6.00 Build 0)  -->
<svg version="1.1" id="Layer_1" xmlns="http://www.w3.org/2000/svg" xmlns:xlink="http://www.w3.org/1999/xlink" x="0px" y="0px"
	 viewBox="0 0 56 56" style="enable-background:new 0 0 56 56;" xml:space="preserve">
<style type="text/css">
	.st0{fill-rule:evenodd;clip-rule:evenodd;fill:#FFCBE8;}
	.st1{fill:#FF69B4;}
</style>
<g>
	<circle class="st0" cx="28" cy="28" r="28"/>
</g>
<g id="_03_packing_box">
	<path class="st1" d="M36.7,21.9h-16L17.9,18c-0.2-0.3-0.6-0.6-1.1-0.6h-5.5c-0.7,0-1.3,0.6-1.3,1.3c0,0.3,0.1,0.5,0.2,0.7l2,3.1
		l-2.8,3.7c-0.4,0.6-0.3,1.4,0.3,1.9c0.2,0.2,0.5,0.3,0.8,0.3h0.9l0,14.7c0,0.7,0.6,1.3,1.3,1.3c0,0,0,0,0,0h24
		c0.7,0,1.3-0.6,1.3-1.3V23.2C38,22.5,37.4,21.9,36.7,21.9z M11.3,18.7h5.5l2.3,3.2h-5.7L11.3,18.7z M10.5,27l2.9-3.8h16.9L27.4,27
		H10.5z M30.9,43H12.7l0-14.7h14.7c0.4,0,0.8-0.2,1.1-0.5l2.5-3.3L30.9,43z M36.7,43h-4.4V23.2h4.5L36.7,43z"/>
	<path class="st1" d="M46.8,21.9c-0.5-5.4-4.7-9.7-10.1-10.2c-3.2-0.3-6.4,0.8-8.8,3.1l-1.3-0.7c-0.2-0.1-0.5-0.1-0.7,0
		c-0.2,0.1-0.3,0.3-0.3,0.6l0,1c0,0.6,0,1.2,0,1.8c0,0.4,0,0.8,0,1.2l0,0.6c0,0,0,0.1,0,0.1c0,0.2,0,0.3,0,0.5
		c0,0.2,0.1,0.3,0.3,0.4c0.2,0.1,0.3,0.1,0.5,0.1l5.5-1.6c0.4-0.1,0.6-0.5,0.4-0.8c0-0.1-0.1-0.2-0.2-0.3l-1-0.8
		c1.4-1.1,3.2-1.6,5-1.4c3.6,0.3,6.4,3.2,6.7,6.8c0.2,2.4-0.8,4.6-2.6,6.1c-0.4,0.3-0.6,0.7-0.6,1.2c0,0.5,0.1,1,0.4,1.4l0.1,0.2
		c0.3,0.4,0.9,0.7,1.4,0.7c0.4,0,0.8-0.1,1.1-0.4C45.6,29,47.1,25.5,46.8,21.9z M42,30.4c-0.2,0.2-0.5,0.1-0.7-0.1l-0.1-0.2
		c-0.1-0.1-0.1-0.2-0.1-0.4c0-0.1,0.1-0.2,0.2-0.3c2.2-1.8,3.3-4.5,3.1-7.2c-0.3-4.3-3.6-7.7-7.9-8c-0.3,0-0.5,0-0.8,0
		c-2.2,0-4.2,0.8-5.8,2.3c-0.1,0.1-0.2,0.3-0.2,0.5c0,0.2,0.1,0.4,0.2,0.5l0.6,0.6l-3.5,1v-0.3c0-0.4,0-0.8,0-1.1c0-0.6,0-1.2,0-1.7
		l0.7,0.4c0.3,0.1,0.6,0.1,0.8-0.1c3.7-4,10-4.1,13.9-0.4s4.1,10,0.4,13.9C42.6,29.8,42.3,30.1,42,30.4z"/>
</g>
</svg>
