<?xml version="1.0" encoding="utf-8"?>
<!-- Generator: Adobe Illustrator 23.0.1, SVG Export Plug-In . SVG Version: 6.00 Build 0)  -->
<svg version="1.1" id="Layer_1" xmlns="http://www.w3.org/2000/svg" xmlns:xlink="http://www.w3.org/1999/xlink" x="0px" y="0px"
	 viewBox="0 0 56 56" style="enable-background:new 0 0 56 56;" xml:space="preserve">
<style type="text/css">
	.st0{fill-rule:evenodd;clip-rule:evenodd;fill:#FFCBE8;}
	.st1{fill:#FF69B4;}
</style>
<g>
	<circle class="st0" cx="28" cy="28" r="28"/>
	<path class="st1" d="M41.2,20H41c0.6-0.9,1-2,1-3.3c0-0.5-0.1-1-0.2-1.4l0,0c-0.5-2.1-2.2-3.7-4.3-4.1l0,0c-0.3,0-0.6-0.1-0.9-0.1
		c-2.3,0-4.2,1.2-5.3,3l0,0L28,19l-3.3-4.7c-1.1-1.8-3.1-3-5.3-3c-0.3,0-0.6,0-0.9,0.1l0,0c-2.1,0.4-3.8,2-4.3,4l0,0
		c-0.1,0.4-0.2,0.9-0.2,1.4c0,1.2,0.4,2.3,1,3.3l0,0h-0.2c-2,0-3.6,1.6-3.6,3.6v3.3c0,1.5,0.9,2.8,2.2,3.3l0,0v11
		c0,2,1.6,3.6,3.6,3.6H39c2,0,3.6-1.6,3.6-3.6v-11c1.3-0.6,2.2-1.8,2.2-3.3v-3.3C44.8,21.6,43.2,20,41.2,20L41.2,20L41.2,20z
		 M42.1,23.6v3.3c0,0.5-0.4,0.8-0.8,0.8H29.4v-5h11.9C41.7,22.8,42.1,23.1,42.1,23.6L42.1,23.6z M33.5,15.8c0.6-1.1,1.8-1.9,3.1-1.9
		c0.1,0,0.2,0,0.3,0l0,0c1.1,0.2,1.9,1,2.2,2l0,0c0,0.2,0,0.4,0,0.5c0,1.4-0.7,2.7-1.8,3.4l0,0h-6.7L33.5,15.8z M16.9,16
		c0.3-1,1.1-1.8,2.1-2l0,0c0.1,0,0.2,0,0.3,0c1.3,0,2.5,0.7,3.1,1.8l0,0l2.9,4.2h-6.7c-1.1-0.8-1.8-2-1.8-3.4
		C16.8,16.4,16.9,16.2,16.9,16L16.9,16L16.9,16z M13.9,23.6c0-0.5,0.4-0.8,0.8-0.8h11.9v5H14.8c-0.5,0-0.8-0.4-0.8-0.8v0V23.6z
		 M16.2,41.2V30.5h10.5V42H17C16.5,42,16.2,41.7,16.2,41.2L16.2,41.2z M39.9,41.2c0,0.5-0.4,0.8-0.8,0.8h-9.6V30.5h10.5V41.2z"/>
</g>
</svg>
